<?xml version="1.0" standalone="no"?>
<!DOCTYPE svg PUBLIC "-//W3C//DTD SVG 20010904//EN"
 "http://www.w3.org/TR/2001/REC-SVG-20010904/DTD/svg10.dtd">
<svg version="1.0" xmlns="http://www.w3.org/2000/svg"
 width="64.000000pt" height="64.000000pt" viewBox="0 0 64.000000 64.000000"
 preserveAspectRatio="xMidYMid meet">

<g transform="translate(0.000000,64.000000) scale(0.100000,-0.100000)"
fill="#000000" stroke="none">
<path d="M0 320 l0 -320 148 0 147 0 -45 26 c-25 14 -81 44 -125 66 -44 22
-83 46 -87 52 -10 14 -10 338 0 352 4 6 43 30 87 52 44 22 100 52 125 66 l45
26 -147 0 -148 0 0 -320z"/>
<path d="M400 609 c30 -17 87 -47 125 -66 39 -20 73 -41 77 -47 5 -6 7 -87 5
-181 l-2 -170 -30 -18 c-16 -11 -75 -43 -130 -73 l-100 -53 148 -1 147 0 0
320 0 320 -147 0 -148 0 55 -31z"/>
<path d="M183 547 l-123 -62 0 -165 0 -166 130 -64 130 -64 130 64 130 64 0
157 0 157 -122 -63 -123 -64 -3 -135 c-3 -180 -22 -181 -22 -1 l0 134 -88 46
c-106 54 -130 71 -119 82 5 4 54 -16 110 -45 56 -29 106 -52 111 -52 5 0 60
28 124 62 l115 61 -114 58 c-63 32 -121 58 -129 58 -8 0 -70 -28 -137 -62z"/>
</g>
</svg>
