<?xml version="1.0" encoding="UTF-8" standalone="no"?> <svg xmlns="http://www.w3.org/2000/svg" viewBox="0 0 64 64"><g id="Layer_16" data-name="Layer 16"><path d="M61,34.73A53.91,53.91,0,0,0,46.72,22.54l2.42-2.42a1.24,1.24,0,1,0-1.76-1.76l-3,3a29.2,29.2,0,0,0-11.15-3V12.5a1.25,1.25,0,0,0-2.5,0v5.8a26.91,26.91,0,0,0-6.27,1.1,1.25,1.25,0,1,0,.72,2.4A23.44,23.44,0,0,1,32,20.75,26.67,26.67,0,0,1,44.09,24,51.39,51.39,0,0,1,58.37,35.5a53.81,53.81,0,0,1-9.62,8.71A1.26,1.26,0,0,0,48.44,46a1.29,1.29,0,0,0,1,.53,1.21,1.21,0,0,0,.72-.23A54.64,54.64,0,0,0,61,36.27,1.23,1.23,0,0,0,61,34.73Z"/><path d="M39.84,37H40a1.25,1.25,0,0,0,1.24-1.1,2.68,2.68,0,0,0,0-.4A9.26,9.26,0,0,0,32,26.25a2.68,2.68,0,0,0-.4,0,1.22,1.22,0,0,0-1.07,1.36,1.27,1.27,0,0,0,1.36,1.12H32a6.76,6.76,0,0,1,6.75,6.75v.1A1.25,1.25,0,0,0,39.84,37Z"/><path d="M10.88,13.12a1.24,1.24,0,0,0-1.76,1.76L17,22.73A54.12,54.12,0,0,0,3,34.73a1.23,1.23,0,0,0,0,1.54c.52.67,13.09,16.48,29,16.48a28.36,28.36,0,0,0,12.06-2.92l5.06,5.05a1.23,1.23,0,0,0,1.76,0,1.24,1.24,0,0,0,0-1.76ZM26.23,32l9.27,9.26A6.73,6.73,0,0,1,25.25,35.5,6.83,6.83,0,0,1,26.23,32ZM32,50.25C19.25,50.25,8.34,38.63,5.63,35.5A52.58,52.58,0,0,1,18.8,24.57l5.63,5.63A9.23,9.23,0,0,0,37.29,43.06L42.19,48A25.31,25.31,0,0,1,32,50.25Z"/></g></svg>